<?xml version="1.0" encoding="UTF-8" standalone="no" ?>
<!DOCTYPE svg PUBLIC "-//W3C//DTD SVG 1.1//EN" "http://www.w3.org/Graphics/SVG/1.1/DTD/svg11.dtd">
<svg xmlns="http://www.w3.org/2000/svg" xmlns:xlink="http://www.w3.org/1999/xlink" version="1.1" width="101.46755" height="52" viewBox="0 0 101.46755 52" xml:space="preserve">
<desc>Created with Fabric.js 5.3.0</desc>
<defs>
</defs>
<g transform="matrix(0.5875706179 0 0 0.5875706215 50.733785 26)" id="6a1wAcXuspNXRE2PvS88Q"  >
<g style="" vector-effect="non-scaling-stroke"   >
		<g transform="matrix(0.9567198163 0 0 0.9567198163 -69.245437254 -42.3298244678)" id="PP8bwGAqYLksAitTqV7Mn"  >
<path style="stroke: none; stroke-width: 1; stroke-dasharray: none; stroke-linecap: butt; stroke-dashoffset: 0; stroke-linejoin: miter; stroke-miterlimit: 4; fill: rgb(75,181,73); fill-rule: nonzero; opacity: 1;" vector-effect="non-scaling-stroke"  transform=" translate(-370.67, -123.52)" d="M 371.92 123.28 C 371.05 123.47 370.29 123.66 369.42 123.86 C 370.19 123.66 371.05 123.47 371.92 123.18 C 371.92 123.2 371.92 123.27 371.92 123.28 Z" stroke-linecap="round" />
</g>
		<g transform="matrix(0.9567198163 0 0 0.9567198163 -69.245437254 -42.3298244678)" id="cgUMTyFk7kxF1c54-3tQm"  >
<path style="stroke: rgb(0,0,0); stroke-opacity: 0; stroke-width: 1; stroke-dasharray: none; stroke-linecap: butt; stroke-dashoffset: 0; stroke-linejoin: miter; stroke-miterlimit: 4; fill: rgb(0,0,0); fill-opacity: 0; fill-rule: nonzero; opacity: 1;" vector-effect="non-scaling-stroke"  transform=" translate(-370.67, -123.52)" d="M 371.92 123.28 C 371.05 123.47 370.29 123.66 369.42 123.86 C 370.19 123.66 371.05 123.47 371.92 123.18 C 371.92 123.2 371.92 123.27 371.92 123.28 Z" stroke-linecap="round" />
</g>
		<g transform="matrix(0.9567198163 0 0 0.9567198163 25.5702801379 5.4439795579)" id="dHzZVDngtmf4--WXrP_Ka"  >
<path style="stroke: none; stroke-width: 1; stroke-dasharray: none; stroke-linecap: butt; stroke-dashoffset: 0; stroke-linejoin: miter; stroke-miterlimit: 4; fill: rgb(96,93,93); fill-rule: nonzero; opacity: 1;" vector-effect="non-scaling-stroke"  transform=" translate(-469.775, -173.455)" d="M 474 196.67 C 473.15 196.67 466.4 196.67 465.55 196.67 C 464.79 196.67 464.21 196.1 464.21 195.33 C 464.21 191.53 464.21 161.14 464.21 157.34 C 464.21 151.87 469.77 151.68 475.34 150.24 C 475.34 153.25 475.34 168.28 475.34 195.33 C 474.95 196.23 474.51 196.67 474 196.67 Z" stroke-linecap="round" />
</g>
		<g transform="matrix(0.9567198163 0 0 0.9567198163 25.5702801379 5.4439795579)" id="Z2vd167tkR_6j8qt2EHIv"  >
<path style="stroke: rgb(0,0,0); stroke-opacity: 0; stroke-width: 1; stroke-dasharray: none; stroke-linecap: butt; stroke-dashoffset: 0; stroke-linejoin: miter; stroke-miterlimit: 4; fill: rgb(0,0,0); fill-opacity: 0; fill-rule: nonzero; opacity: 1;" vector-effect="non-scaling-stroke"  transform=" translate(-469.775, -173.455)" d="M 474 196.67 C 473.15 196.67 466.4 196.67 465.55 196.67 C 464.79 196.67 464.21 196.1 464.21 195.33 C 464.21 191.53 464.21 161.14 464.21 157.34 C 464.21 151.87 469.77 151.68 475.34 150.24 C 475.34 153.25 475.34 168.28 475.34 195.33 C 474.95 196.23 474.51 196.67 474 196.67 Z" stroke-linecap="round" />
</g>
		<g transform="matrix(0.9567198163 0 0 0.9567198163 25.5702801379 -21.2198017217)" id="wrA96dSutTDFLwNxCcEEO"  >
<path style="stroke: none; stroke-width: 1; stroke-dasharray: none; stroke-linecap: butt; stroke-dashoffset: 0; stroke-linejoin: miter; stroke-miterlimit: 4; fill: rgb(75,181,73); fill-rule: nonzero; opacity: 1;" vector-effect="non-scaling-stroke"  transform=" translate(-469.775, -145.585)" d="M 475.34 148.51 C 475.34 147.65 475.34 140.74 475.34 139.88 C 475.34 139.11 474.76 138.53 474 138.53 C 473.13 138.53 466.22 138.53 465.36 138.53 C 464.69 138.53 464.21 139.01 464.21 139.69 C 464.21 140.55 464.21 144.87 464.21 152.64 C 464.27 151.04 467.98 149.66 475.34 148.51 Z" stroke-linecap="round" />
</g>
		<g transform="matrix(0.9567198163 0 0 0.9567198163 25.5702801379 -21.2198017217)" id="atiGOl8jmN8grmrk16T7m"  >
<path style="stroke: rgb(0,0,0); stroke-opacity: 0; stroke-width: 1; stroke-dasharray: none; stroke-linecap: butt; stroke-dashoffset: 0; stroke-linejoin: miter; stroke-miterlimit: 4; fill: rgb(0,0,0); fill-opacity: 0; fill-rule: nonzero; opacity: 1;" vector-effect="non-scaling-stroke"  transform=" translate(-469.775, -145.585)" d="M 475.34 148.51 C 475.34 147.65 475.34 140.74 475.34 139.88 C 475.34 139.11 474.76 138.53 474 138.53 C 473.13 138.53 466.22 138.53 465.36 138.53 C 464.69 138.53 464.21 139.01 464.21 139.69 C 464.21 140.55 464.21 144.87 464.21 152.64 C 464.27 151.04 467.98 149.66 475.34 148.51 Z" stroke-linecap="round" />
</g>
		<g transform="matrix(0.9567198163 0 0 0.9567198163 9.7844031694 -7.8209406948)" id="_GfaoHZKCd5dlIVZp5S56"  >
<path style="stroke: none; stroke-width: 1; stroke-dasharray: none; stroke-linecap: butt; stroke-dashoffset: 0; stroke-linejoin: miter; stroke-miterlimit: 4; fill: rgb(96,93,93); fill-rule: nonzero; opacity: 1;" vector-effect="non-scaling-stroke"  transform=" translate(-453.275, -159.59)" d="M 457.49 196.67 C 456.65 196.67 449.9 196.67 449.05 196.67 C 448.28 196.67 447.71 196.1 447.71 195.33 C 447.71 188.76 447.71 136.18 447.71 129.61 C 447.71 124.14 453.27 123.95 458.84 122.51 C 458.84 127.37 458.84 151.64 458.84 195.33 C 458.45 196.23 458.01 196.67 457.49 196.67 Z" stroke-linecap="round" />
</g>
		<g transform="matrix(0.9567198163 0 0 0.9567198163 9.7844031694 -7.8209406948)" id="9E3_NnZK6YG6n0K8Ii3fX"  >
<path style="stroke: rgb(0,0,0); stroke-opacity: 0; stroke-width: 1; stroke-dasharray: none; stroke-linecap: butt; stroke-dashoffset: 0; stroke-linejoin: miter; stroke-miterlimit: 4; fill: rgb(0,0,0); fill-opacity: 0; fill-rule: nonzero; opacity: 1;" vector-effect="non-scaling-stroke"  transform=" translate(-453.275, -159.59)" d="M 457.49 196.67 C 456.65 196.67 449.9 196.67 449.05 196.67 C 448.28 196.67 447.71 196.1 447.71 195.33 C 447.71 188.76 447.71 136.18 447.71 129.61 C 447.71 124.14 453.27 123.95 458.84 122.51 C 458.84 127.37 458.84 151.64 458.84 195.33 C 458.45 196.23 458.01 196.67 457.49 196.67 Z" stroke-linecap="round" />
</g>
		<g transform="matrix(0.9567198163 0 0 0.9567198163 76.3242663913 5.4439795579)" id="kcH3hD5BsXwtRZxevpceP"  >
<path style="stroke: none; stroke-width: 1; stroke-dasharray: none; stroke-linecap: butt; stroke-dashoffset: 0; stroke-linejoin: miter; stroke-miterlimit: 4; fill: rgb(96,93,93); fill-rule: nonzero; opacity: 1;" vector-effect="non-scaling-stroke"  transform=" translate(-522.825, -173.455)" d="M 527.05 196.67 C 526.2 196.67 519.45 196.67 518.61 196.67 C 517.84 196.67 517.26 196.1 517.26 195.33 C 517.26 191.53 517.26 161.14 517.26 157.34 C 517.26 151.87 522.83 151.68 528.39 150.24 C 528.39 153.25 528.39 168.28 528.39 195.33 C 528.01 196.23 527.56 196.67 527.05 196.67 Z" stroke-linecap="round" />
</g>
		<g transform="matrix(0.9567198163 0 0 0.9567198163 76.3242663913 5.4439795579)" id="0yUSCbbyfyeJtfccMtEnW"  >
<path style="stroke: rgb(0,0,0); stroke-opacity: 0; stroke-width: 1; stroke-dasharray: none; stroke-linecap: butt; stroke-dashoffset: 0; stroke-linejoin: miter; stroke-miterlimit: 4; fill: rgb(0,0,0); fill-opacity: 0; fill-rule: nonzero; opacity: 1;" vector-effect="non-scaling-stroke"  transform=" translate(-522.825, -173.455)" d="M 527.05 196.67 C 526.2 196.67 519.45 196.67 518.61 196.67 C 517.84 196.67 517.26 196.1 517.26 195.33 C 517.26 191.53 517.26 161.14 517.26 157.34 C 517.26 151.87 522.83 151.68 528.39 150.24 C 528.39 153.25 528.39 168.28 528.39 195.33 C 528.01 196.23 527.56 196.67 527.05 196.67 Z" stroke-linecap="round" />
</g>
		<g transform="matrix(0.9567198163 0 0 0.9567198163 76.3242663913 -21.2198017217)" id="KOowxlp_0VQ3IDDVBiTm4"  >
<path style="stroke: none; stroke-width: 1; stroke-dasharray: none; stroke-linecap: butt; stroke-dashoffset: 0; stroke-linejoin: miter; stroke-miterlimit: 4; fill: rgb(75,181,73); fill-rule: nonzero; opacity: 1;" vector-effect="non-scaling-stroke"  transform=" translate(-522.825, -145.585)" d="M 528.39 148.51 C 528.39 147.65 528.39 140.74 528.39 139.88 C 528.39 139.11 527.82 138.53 527.05 138.53 C 526.19 138.53 519.28 138.53 518.41 138.53 C 517.74 138.53 517.26 139.01 517.26 139.69 C 517.26 140.55 517.26 144.87 517.26 152.64 C 517.33 151.04 521.04 149.66 528.39 148.51 Z" stroke-linecap="round" />
</g>
		<g transform="matrix(0.9567198163 0 0 0.9567198163 76.3242663913 -21.2198017217)" id="oQdkRK9687oY6YLQuF7HB"  >
<path style="stroke: rgb(0,0,0); stroke-opacity: 0; stroke-width: 1; stroke-dasharray: none; stroke-linecap: butt; stroke-dashoffset: 0; stroke-linejoin: miter; stroke-miterlimit: 4; fill: rgb(0,0,0); fill-opacity: 0; fill-rule: nonzero; opacity: 1;" vector-effect="non-scaling-stroke"  transform=" translate(-522.825, -145.585)" d="M 528.39 148.51 C 528.39 147.65 528.39 140.74 528.39 139.88 C 528.39 139.11 527.82 138.53 527.05 138.53 C 526.19 138.53 519.28 138.53 518.41 138.53 C 517.74 138.53 517.26 139.01 517.26 139.69 C 517.26 140.55 517.26 144.87 517.26 152.64 C 517.33 151.04 521.04 149.66 528.39 148.51 Z" stroke-linecap="round" />
</g>
		<g transform="matrix(0.9567198163 0 0 0.9567198163 50.9520568637 5.3530911753)" id="zGMwWBk_AFmECpHW19f4g"  >
<path style="stroke: none; stroke-width: 1; stroke-dasharray: none; stroke-linecap: butt; stroke-dashoffset: 0; stroke-linejoin: miter; stroke-miterlimit: 4; fill: rgb(96,93,93); fill-rule: nonzero; opacity: 1;" vector-effect="non-scaling-stroke"  transform=" translate(-496.305, -173.36)" d="M 490.88 159.64 C 490.88 156.09 493.37 153.6 496.54 153.6 C 501.05 153.6 504.31 157.15 506.61 162.71 C 506.9 163.29 507.57 163.67 508.15 163.48 C 508.22 163.46 508.75 163.31 508.82 163.29 C 509.49 163.09 509.88 162.52 509.78 161.85 C 509.4 159.26 508.53 154.65 507.77 152.35 C 507.57 151.97 507.29 151.58 506.9 151.49 C 504.79 150.72 502.2 150.05 498.17 150.05 C 488 150.05 481.77 156.28 481.77 163.77 C 481.77 172.11 489.44 175.85 494.53 178.25 C 500.28 181.04 502.3 183.43 502.3 186.89 C 502.3 190.44 499.61 192.93 496.16 192.93 C 490.4 192.93 485.99 187.08 483.78 180.94 C 483.59 180.36 483.01 179.98 482.44 180.08 C 482.37 180.09 481.83 180.16 481.77 180.17 C 481.09 180.27 480.62 180.84 480.62 181.51 C 480.71 185.54 481.48 191.01 482.05 192.84 C 482.15 193.12 482.25 193.32 482.53 193.51 C 484.64 194.95 489.54 196.67 494.53 196.67 C 502.87 196.67 511.99 191.88 511.99 182.19 C 511.99 174.61 506.71 171.15 498.75 167.7 C 493.85 165.59 490.88 163.19 490.88 159.64 Z" stroke-linecap="round" />
</g>
		<g transform="matrix(0.9567198163 0 0 0.9567198163 50.9520568637 5.3530911753)" id="gllRQnImMCD9nqXj8ZSbC"  >
<path style="stroke: rgb(0,0,0); stroke-opacity: 0; stroke-width: 1; stroke-dasharray: none; stroke-linecap: butt; stroke-dashoffset: 0; stroke-linejoin: miter; stroke-miterlimit: 4; fill: rgb(0,0,0); fill-opacity: 0; fill-rule: nonzero; opacity: 1;" vector-effect="non-scaling-stroke"  transform=" translate(-496.305, -173.36)" d="M 490.88 159.64 C 490.88 156.09 493.37 153.6 496.54 153.6 C 501.05 153.6 504.31 157.15 506.61 162.71 C 506.9 163.29 507.57 163.67 508.15 163.48 C 508.22 163.46 508.75 163.31 508.82 163.29 C 509.49 163.09 509.88 162.52 509.78 161.85 C 509.4 159.26 508.53 154.65 507.77 152.35 C 507.57 151.97 507.29 151.58 506.9 151.49 C 504.79 150.72 502.2 150.05 498.17 150.05 C 488 150.05 481.77 156.28 481.77 163.77 C 481.77 172.11 489.44 175.85 494.53 178.25 C 500.28 181.04 502.3 183.43 502.3 186.89 C 502.3 190.44 499.61 192.93 496.16 192.93 C 490.4 192.93 485.99 187.08 483.78 180.94 C 483.59 180.36 483.01 179.98 482.44 180.08 C 482.37 180.09 481.83 180.16 481.77 180.17 C 481.09 180.27 480.62 180.84 480.62 181.51 C 480.71 185.54 481.48 191.01 482.05 192.84 C 482.15 193.12 482.25 193.32 482.53 193.51 C 484.64 194.95 489.54 196.67 494.53 196.67 C 502.87 196.67 511.99 191.88 511.99 182.19 C 511.99 174.61 506.71 171.15 498.75 167.7 C 493.85 165.59 490.88 163.19 490.88 159.64 Z" stroke-linecap="round" />
</g>
		<g transform="matrix(0.9567198163 0 0 0.9567198163 -60.8502208662 -19.7687021247)" id="1_oy0CdTN3Ya6MarmWapM"  >
<path style="stroke: none; stroke-width: 1; stroke-dasharray: none; stroke-linecap: butt; stroke-dashoffset: 0; stroke-linejoin: miter; stroke-miterlimit: 4; fill: rgb(75,181,73); fill-rule: nonzero; opacity: 1;" vector-effect="non-scaling-stroke"  transform=" translate(-379.445, -147.1017445812)" d="M 400.6 153.5 C 400.49 153.44 400.42 153.41 400.41 153.41 C 400.41 153.41 393.6 163 382.66 168.28 C 382.28 168.47 381.89 168.66 381.61 168.76 C 378.73 170 375.66 171.06 372.3 171.44 C 368.85 171.92 365.11 171.73 361.17 170.77 C 359.35 170.29 357.53 169.71 355.7 168.85 C 356.09 169.04 357.24 169.43 358.87 169.71 C 359.54 169.81 360.31 170 361.17 170.1 C 361.17 166.05 361.17 133.66 361.17 129.61 C 361.17 124.14 366.74 123.95 372.3 122.51 C 372.3 126.91 372.3 162.06 372.3 166.45 C 371.63 167.7 369.33 168.95 367.12 169.71 C 368.75 169.52 370.48 169.14 372.3 168.47 C 372.3 168.48 372.3 168.55 372.3 168.56 C 372.88 168.37 373.45 168.08 374.03 167.89 C 374.32 167.8 374.6 167.6 374.8 167.51 C 380.65 164.63 386.98 158.97 393.31 148.7 C 393.13 148.58 392.2 147.97 390.53 146.88 L 391.01 146.69 L 402.71 142.37 L 403.19 154.46 L 403.19 154.94 L 400.6 153.5 Z" stroke-linecap="round" />
</g>
		<g transform="matrix(0.9567198163 0 0 0.9567198163 -60.8502208662 -19.7687021247)" id="vnGngPksAk2JyHiqGl5_1"  >
<path style="stroke: rgb(0,0,0); stroke-opacity: 0; stroke-width: 1; stroke-dasharray: none; stroke-linecap: butt; stroke-dashoffset: 0; stroke-linejoin: miter; stroke-miterlimit: 4; fill: rgb(0,0,0); fill-opacity: 0; fill-rule: nonzero; opacity: 1;" vector-effect="non-scaling-stroke"  transform=" translate(-379.445, -147.1017445812)" d="M 400.6 153.5 C 400.49 153.44 400.42 153.41 400.41 153.41 C 400.41 153.41 393.6 163 382.66 168.28 C 382.28 168.47 381.89 168.66 381.61 168.76 C 378.73 170 375.66 171.06 372.3 171.44 C 368.85 171.92 365.11 171.73 361.17 170.77 C 359.35 170.29 357.53 169.71 355.7 168.85 C 356.09 169.04 357.24 169.43 358.87 169.71 C 359.54 169.81 360.31 170 361.17 170.1 C 361.17 166.05 361.17 133.66 361.17 129.61 C 361.17 124.14 366.74 123.95 372.3 122.51 C 372.3 126.91 372.3 162.06 372.3 166.45 C 371.63 167.7 369.33 168.95 367.12 169.71 C 368.75 169.52 370.48 169.14 372.3 168.47 C 372.3 168.48 372.3 168.55 372.3 168.56 C 372.88 168.37 373.45 168.08 374.03 167.89 C 374.32 167.8 374.6 167.6 374.8 167.51 C 380.65 164.63 386.98 158.97 393.31 148.7 C 393.13 148.58 392.2 147.97 390.53 146.88 L 391.01 146.69 L 402.71 142.37 L 403.19 154.46 L 403.19 154.94 L 400.6 153.5 Z" stroke-linecap="round" />
</g>
		<g transform="matrix(0.9567198163 0 0 0.9567198163 -52.3021716327 21.4389214889)" id="LJoCe98ZLuD1DFqLvwDpK"  >
<path style="stroke: none; stroke-width: 1; stroke-dasharray: none; stroke-linecap: butt; stroke-dashoffset: 0; stroke-linejoin: miter; stroke-miterlimit: 4; fill: rgb(96,93,93); fill-rule: nonzero; opacity: 1;" vector-effect="non-scaling-stroke"  transform=" translate(-388.3797467127, -190.1735226635)" d="M 415.19 208.57 C 414.32 207.99 413.65 207.23 412.88 206.27 C 410.2 203.2 389.09 176.24 384.1 169.33 C 380.36 171.63 376.14 172.69 372.3 173.17 C 372.3 173.17 372.3 173.17 372.3 173.17 C 366.93 173.74 362.42 173.17 361.17 172.88 C 361.17 175.14 361.17 193.17 361.17 195.43 C 361.17 195.52 361.17 195.52 361.17 195.62 C 361.27 196.29 361.84 196.77 362.52 196.77 C 363.36 196.77 370.11 196.77 370.96 196.77 C 371.73 196.77 372.3 196.19 372.3 195.43 C 372.3 193.44 372.3 177.55 372.3 175.57 C 372.3 175.57 372.3 174.32 373.36 174.22 C 374.32 174.13 375.28 174.51 375.95 175.47 C 377.48 177.58 401.75 209.05 403.29 210.3 C 405.4 212.02 417.68 210.3 415.28 208.76 C 415.26 208.72 415.2 208.61 415.19 208.57 Z" stroke-linecap="round" />
</g>
		<g transform="matrix(0.9567198163 0 0 0.9567198163 -52.3021716327 21.4389214889)" id="e1PlBBwOtgf3VQveNYalj"  >
<path style="stroke: rgb(0,0,0); stroke-opacity: 0; stroke-width: 1; stroke-dasharray: none; stroke-linecap: butt; stroke-dashoffset: 0; stroke-linejoin: miter; stroke-miterlimit: 4; fill: rgb(0,0,0); fill-opacity: 0; fill-rule: nonzero; opacity: 1;" vector-effect="non-scaling-stroke"  transform=" translate(-388.3797467127, -190.1735226635)" d="M 415.19 208.57 C 414.32 207.99 413.65 207.23 412.88 206.27 C 410.2 203.2 389.09 176.24 384.1 169.33 C 380.36 171.63 376.14 172.69 372.3 173.17 C 372.3 173.17 372.3 173.17 372.3 173.17 C 366.93 173.74 362.42 173.17 361.17 172.88 C 361.17 175.14 361.17 193.17 361.17 195.43 C 361.17 195.52 361.17 195.52 361.17 195.62 C 361.27 196.29 361.84 196.77 362.52 196.77 C 363.36 196.77 370.11 196.77 370.96 196.77 C 371.73 196.77 372.3 196.19 372.3 195.43 C 372.3 193.44 372.3 177.55 372.3 175.57 C 372.3 175.57 372.3 174.32 373.36 174.22 C 374.32 174.13 375.28 174.51 375.95 175.47 C 377.48 177.58 401.75 209.05 403.29 210.3 C 405.4 212.02 417.68 210.3 415.28 208.76 C 415.26 208.72 415.2 208.61 415.19 208.57 Z" stroke-linecap="round" />
</g>
		<g transform="matrix(0.9567198163 0 0 0.9567198163 -18.4388314107 5.6735923138)" id="AVpNpS9EOkX4gB1pkRJhU"  >
<path style="stroke: none; stroke-width: 1; stroke-dasharray: none; stroke-linecap: butt; stroke-dashoffset: 0; stroke-linejoin: miter; stroke-miterlimit: 4; fill: rgb(96,93,93); fill-rule: nonzero; opacity: 1;" vector-effect="non-scaling-stroke"  transform=" translate(-423.775, -173.695)" d="M 440.99 156.28 C 440.03 154.17 438.59 152.64 436.68 151.68 C 434.76 150.72 430.92 150.14 427.75 150.14 C 425.64 150.14 423.63 150.34 421.52 150.81 C 419.5 151.2 417.39 151.87 415.38 152.54 C 413.36 153.31 408.18 156.67 408.18 156.67 C 407.22 159.93 407.22 163.19 407.03 165.69 C 407.39 165.76 410.23 166.38 410.58 166.45 C 411.64 163.29 414.03 154.17 423.34 154.46 C 425.64 154.56 427.47 154.94 428.81 155.8 C 430.15 156.67 431.21 158.11 431.88 160.02 C 432.55 161.94 432.84 164.53 432.84 167.89 C 432.84 168.2 432.84 170.65 432.84 170.96 C 429.48 171.15 426.41 171.44 423.72 171.83 C 418.93 172.59 415.09 173.74 412.12 175.37 C 407.51 177.87 405.21 181.51 405.21 186.12 C 405.21 186.41 405.21 186.7 405.21 186.98 C 405.3 188.81 405.78 190.53 406.65 191.97 C 407.61 193.7 409.05 194.95 410.87 195.91 C 412.5 196.67 414.32 197.15 416.34 197.25 C 416.62 197.25 417.01 197.25 417.3 197.25 C 417.39 197.25 417.49 197.25 417.58 197.25 C 417.58 197.25 417.58 197.25 417.58 197.25 C 417.58 197.25 417.78 197.25 418.16 197.25 C 418.35 197.25 418.64 197.25 418.83 197.15 C 419.02 197.15 419.21 197.15 419.41 197.06 C 419.44 197.06 419.67 197.06 419.69 197.06 C 422.76 196.67 428.42 195.62 433.32 191.59 C 433.32 191.95 433.32 194.87 433.32 195.23 C 433.32 196 433.89 196.58 434.66 196.58 C 435.29 196.57 440.36 196.49 440.99 196.48 C 441.76 196.48 442.34 195.91 442.34 195.14 C 442.34 192.17 442.34 168.46 442.34 165.49 C 442.34 161.37 441.86 158.2 440.9 156.09 C 440.92 156.13 440.97 156.24 440.99 156.28 Z M 432.93 181.61 C 432.93 181.61 432.93 181.61 432.93 181.61 C 432.93 182.19 432.84 182.76 432.74 183.43 C 432.74 183.43 432.74 183.53 432.74 183.53 C 432.36 184.78 431.49 186.12 429.96 187.56 C 425.07 192.26 420.27 191.59 417.49 190.25 C 414.42 188.81 412.69 182.95 416.91 179.4 C 420.46 176.33 430.06 175.28 432.93 175.09 C 432.93 175.53 432.93 177.77 432.93 181.8 L 432.93 181.61 Z" stroke-linecap="round" />
</g>
		<g transform="matrix(0.9567198163 0 0 0.9567198163 -18.4388314107 5.6735923138)" id="w4Gkcw2lXKElkE8CyCPtl"  >
<path style="stroke: rgb(0,0,0); stroke-opacity: 0; stroke-width: 1; stroke-dasharray: none; stroke-linecap: butt; stroke-dashoffset: 0; stroke-linejoin: miter; stroke-miterlimit: 4; fill: rgb(0,0,0); fill-opacity: 0; fill-rule: nonzero; opacity: 1;" vector-effect="non-scaling-stroke"  transform=" translate(-423.775, -173.695)" d="M 440.99 156.28 C 440.03 154.17 438.59 152.64 436.68 151.68 C 434.76 150.72 430.92 150.14 427.75 150.14 C 425.64 150.14 423.63 150.34 421.52 150.81 C 419.5 151.2 417.39 151.87 415.38 152.54 C 413.36 153.31 408.18 156.67 408.18 156.67 C 407.22 159.93 407.22 163.19 407.03 165.69 C 407.39 165.76 410.23 166.38 410.58 166.45 C 411.64 163.29 414.03 154.17 423.34 154.46 C 425.64 154.56 427.47 154.94 428.81 155.8 C 430.15 156.67 431.21 158.11 431.88 160.02 C 432.55 161.94 432.84 164.53 432.84 167.89 C 432.84 168.2 432.84 170.65 432.84 170.96 C 429.48 171.15 426.41 171.44 423.72 171.83 C 418.93 172.59 415.09 173.74 412.12 175.37 C 407.51 177.87 405.21 181.51 405.21 186.12 C 405.21 186.41 405.21 186.7 405.21 186.98 C 405.3 188.81 405.78 190.53 406.65 191.97 C 407.61 193.7 409.05 194.95 410.87 195.91 C 412.5 196.67 414.32 197.15 416.34 197.25 C 416.62 197.25 417.01 197.25 417.3 197.25 C 417.39 197.25 417.49 197.25 417.58 197.25 C 417.58 197.25 417.58 197.25 417.58 197.25 C 417.58 197.25 417.78 197.25 418.16 197.25 C 418.35 197.25 418.64 197.25 418.83 197.15 C 419.02 197.15 419.21 197.15 419.41 197.06 C 419.44 197.06 419.67 197.06 419.69 197.06 C 422.76 196.67 428.42 195.62 433.32 191.59 C 433.32 191.95 433.32 194.87 433.32 195.23 C 433.32 196 433.89 196.58 434.66 196.58 C 435.29 196.57 440.36 196.49 440.99 196.48 C 441.76 196.48 442.34 195.91 442.34 195.14 C 442.34 192.17 442.34 168.46 442.34 165.49 C 442.34 161.37 441.86 158.2 440.9 156.09 C 440.92 156.13 440.97 156.24 440.99 156.28 Z M 432.93 181.61 C 432.93 181.61 432.93 181.61 432.93 181.61 C 432.93 182.19 432.84 182.76 432.74 183.43 C 432.74 183.43 432.74 183.53 432.74 183.53 C 432.36 184.78 431.49 186.12 429.96 187.56 C 425.07 192.26 420.27 191.59 417.49 190.25 C 414.42 188.81 412.69 182.95 416.91 179.4 C 420.46 176.33 430.06 175.28 432.93 175.09 C 432.93 175.53 432.93 177.77 432.93 181.8 L 432.93 181.61 Z" stroke-linecap="round" />
</g>
</g>
</g>
</svg>